# xmcd CD database file
# Copyright (C) 1996 Ti Kan
#
# Track frame offsets:
#	150
#	13390
#	23497
#	36725
#	51702
#	64607
#	82260
#	99190
#	121877
#	133637
#	149510
#	167047
#	178235
#	197517
#	210335
#	222827
#	238370
#	253392
#	270402
#	277392
#
# Disc length: 3886 seconds
#
# Revision: 1
# Processed by: cddbd v1.4b41PL1 Copyright (c) Steve Scherf et al.
# Submitted via: EasyCD 2.21 - (C) 1996 Greg Leichner
#
DISCID=400f2c14
DTITLE=Fleetwood Mac - The Collection
DYEAR=1900
DGENRE=
TTITLE0=Shake Your Moneymaker
TTITLE1=Long Grey Mare
TTITLE2=I Loved Another Woman
TTITLE3=Got To Move
TTITLE4=Black Magic Woman
TTITLE5=Need Your Love So Bad
TTITLE6=Doctor Brown
TTITLE7=Love That Burns
TTITLE8=Lazy Poker Blues
TTITLE9=Drifting
TTITLE10=Fleetwood Mac
TTITLE11=Love That Woman
TTITLE12=I've Lost My Baby
TTITLE13=Man Of The World
TTITLE14=Someone's Gonna Get Their Head Kicked In Tonite
TTITLE15=Watch Out
TTITLE16=Homework
TTITLE17=Rockin' Boogie
TTITLE18=Jigsaw Puzzle Blues
TTITLE19=Albatross
EXTD=
EXTT0=
EXTT1=
EXTT2=
EXTT3=
EXTT4=
EXTT5=
EXTT6=
EXTT7=
EXTT8=
EXTT9=
EXTT10=
EXTT11=
EXTT12=
EXTT13=
EXTT14=
EXTT15=
EXTT16=
EXTT17=
EXTT18=
EXTT19=
PLAYORDER=
